<svg xmlns="http://www.w3.org/2000/svg" viewBox="0 0 160 160"><defs><style>.cls-1{fill:#5cd8c3;}</style></defs><g id="Ebene_2" data-name="Ebene 2"><g id="Layer_1" data-name="Layer 1"><g id="Layer_3" data-name="Layer 3"><circle class="cls-1" cx="80" cy="80" r="80"/></g><path d="M112.66,58.12c0,13.67-8.28,24.44-25.62,33.25v7.09a2.36,2.36,0,0,1-2.63,2.63H73.11a2.36,2.36,0,0,1-2.63-2.63v-11a3.12,3.12,0,0,1,2.1-3.15C91.77,75.33,97.29,67.84,97.29,59c0-9.46-6.44-14.72-16.43-14.72-8.15,0-15.11,3.55-17.87,11.57a3,3,0,0,1-3,2.23H50c-1.84,0-2.76-.66-2.63-1.84C49.72,43.8,60.89,30,81.78,30,102.28,30,112.66,43.14,112.66,58.12ZM84.54,127.37A2.36,2.36,0,0,1,81.91,130H69.82a2.36,2.36,0,0,1-2.63-2.63V116.86a2.36,2.36,0,0,1,2.63-2.63H81.91a2.36,2.36,0,0,1,2.63,2.63Z"/></g></g></svg>