<svg xmlns="http://www.w3.org/2000/svg" viewBox="0 0 160 160"><defs><style>.cls-1{fill:#fff;opacity:0.5;isolation:isolate;}</style></defs><g id="Ebene_2" data-name="Ebene 2"><g id="Layer_1" data-name="Layer 1"><g id="Layer_3" data-name="Layer 3"><circle cx="80" cy="80" r="80"/></g><path class="cls-1" d="M112.7,58.1c0,13.7-8.3,24.4-25.6,33.2v7.1a2.33,2.33,0,0,1-2.6,2.6H73.2a2.33,2.33,0,0,1-2.6-2.6v-11a3.25,3.25,0,0,1,2.1-3.2C91.9,75.3,97.4,67.8,97.4,59c0-9.5-6.4-14.7-16.4-14.7-8.1,0-15.1,3.5-17.9,11.6a2.93,2.93,0,0,1-3,2.2h-10c-1.8,0-2.8-.7-2.6-1.8C49.9,43.8,61,30,81.9,30,102.3,30,112.7,43.1,112.7,58.1ZM84.5,127.4a2.33,2.33,0,0,1-2.6,2.6H69.8a2.33,2.33,0,0,1-2.6-2.6V116.9a2.33,2.33,0,0,1,2.6-2.6H81.9a2.33,2.33,0,0,1,2.6,2.6Z"/></g></g></svg>